<svg xmlns="http://www.w3.org/2000/svg" xmlns:xlink="http://www.w3.org/1999/xlink" width="35" height="35" viewBox="0 0 35 35">
  <defs>
    <clipPath id="clip-path">
      <rect id="사각형_33" data-name="사각형 33" width="35" height="35" fill="none"/>
    </clipPath>
  </defs>
  <g id="그룹_60" data-name="그룹 60" transform="translate(0 0)">
    <g id="그룹_59" data-name="그룹 59" transform="translate(0 0)" clip-path="url(#clip-path)">
      <path id="패스_62" data-name="패스 62" d="M17.5,35A17.5,17.5,0,1,1,35,17.5,17.521,17.521,0,0,1,17.5,35m0-32.994A15.493,15.493,0,1,0,32.992,17.5,15.512,15.512,0,0,0,17.5,2.006" transform="translate(0 0)" fill="#aaa"/>
      <path id="패스_63" data-name="패스 63" d="M8.721,18.945a1,1,0,0,1-.709-1.712l4.651-4.651L8.012,7.93A1,1,0,0,1,9.43,6.511l5.346,5.346a1,1,0,0,1,.294.709,1.07,1.07,0,0,1-.294.738L9.43,18.651a1,1,0,0,1-.709.294" transform="translate(6.105 4.919)" fill="#aaa"/>
    </g>
  </g>
</svg>
