<svg xmlns="http://www.w3.org/2000/svg" xmlns:xlink="http://www.w3.org/1999/xlink" width="73.26" height="16.592" viewBox="0 0 73.26 16.592">
  <defs>
    <clipPath id="clip-path">
      <rect id="사각형_47" data-name="사각형 47" width="73.26" height="16.592" fill="none"/>
    </clipPath>
  </defs>
  <g id="이데일리_logo_" data-name="이데일리(logo)" transform="translate(0 0)">
    <path id="패스_62" data-name="패스 62" d="M27.9.006,27.906,16.6h3.533V.006Z" transform="translate(-15.342 -0.003)" fill="#7a7d7e"/>
    <g id="그룹_59" data-name="그룹 59" transform="translate(0 0)">
      <g id="그룹_58" data-name="그룹 58" clip-path="url(#clip-path)">
        <path id="패스_63" data-name="패스 63" d="M9.375,3.815A6.447,6.447,0,0,0,5.54,2.634,6.39,6.39,0,0,0,1.728,3.808,4.271,4.271,0,0,0,0,7.341a4.272,4.272,0,0,0,1.734,3.535,6.406,6.406,0,0,0,3.824,1.18,6.405,6.405,0,0,0,3.823-1.18,4.268,4.268,0,0,0,1.732-3.535A4.257,4.257,0,0,0,9.375,3.815M8.151,8.7a6.8,6.8,0,0,1-2.579.455h0a6.788,6.788,0,0,1-2.6-.461c-.71-.307-1.181-.766-1.181-1.376,0-.592.473-1.044,1.187-1.346a6.947,6.947,0,0,1,2.607-.455,6.668,6.668,0,0,1,2.57.455c.7.3,1.163.761,1.163,1.372S8.852,8.4,8.151,8.7" transform="translate(0 -1.449)" fill="#7a7d7e"/>
        <path id="패스_64" data-name="패스 64" d="M139.949,0l.007,9.624-9.29.014V7.348h6.675a.454.454,0,0,0,.321-.106.367.367,0,0,0,.1-.274V1.26a.208.208,0,0,0-.079-.177.286.286,0,0,0-.173-.055h-9.865V3.072h7.124v2.27h-7.124l0,4.351c0,1.107,1,2,2.913,2.007l9.39.008v4.865h3.5V0Z" transform="translate(-70.196 0)" fill="#7a7d7e"/>
        <path id="패스_65" data-name="패스 65" d="M49.912,2.992V4.9H45.983v6.421h4.681v1.909H42.757L42.771,3Z" transform="translate(-23.513 -1.645)" fill="#7a7d7e"/>
        <path id="패스_66" data-name="패스 66" d="M58.339,5.171V5.2H54.958V7.289h3.381l0,9.307h3.117V.006H58.332Z" transform="translate(-30.222 -0.004)" fill="#7a7d7e"/>
        <rect id="사각형_45" data-name="사각형 45" width="3.115" height="16.589" transform="translate(32.043 0.003)" fill="#7a7d7e"/>
        <rect id="사각형_46" data-name="사각형 46" width="3.625" height="8.493" transform="translate(50.547 0)" fill="#7a7d7e"/>
        <path id="패스_67" data-name="패스 67" d="M92.963,26.157a.092.092,0,0,1-.044-.086V25.3h10.144a.5.5,0,0,0,.34-.105.358.358,0,0,0,.111-.275V21.265a.218.218,0,0,0-.063-.17.262.262,0,0,0-.185-.059H89.728v1.729H99.879v.87H89.728v1.653a2.875,2.875,0,0,0,.605,1.646,3.755,3.755,0,0,0,3.128,1.208h10.07V26.178H93.075a.223.223,0,0,1-.112-.022" transform="translate(-49.343 -11.568)" fill="#7a7d7e"/>
        <path id="패스_68" data-name="패스 68" d="M93.51,1.968a6.416,6.416,0,0,0-3.58-1h0a6.411,6.411,0,0,0-3.57,1,3.519,3.519,0,0,0-1.616,3,3.5,3.5,0,0,0,1.616,2.989,6.422,6.422,0,0,0,3.57,1,6.456,6.456,0,0,0,3.58-1,3.5,3.5,0,0,0,1.623-2.988,3.515,3.515,0,0,0-1.623-3m-1.2,4.053a7.3,7.3,0,0,1-2.323.337h0a7.307,7.307,0,0,1-2.34-.341C87.006,5.79,86.581,5.451,86.581,5s.426-.771,1.067-1A7.528,7.528,0,0,1,90,3.667,7.234,7.234,0,0,1,92.316,4c.63.225,1.045.564,1.045,1.015s-.42.78-1.052,1" transform="translate(-46.601 -0.531)" fill="#7a7d7e"/>
      </g>
    </g>
  </g>
</svg>
