<svg xmlns="http://www.w3.org/2000/svg" xmlns:xlink="http://www.w3.org/1999/xlink" width="18.645" height="18.645" viewBox="0 0 18.645 18.645">
  <defs>
    <clipPath id="clip-path">
      <rect id="사각형_450" data-name="사각형 450" width="18.645" height="18.645" fill="none"/>
    </clipPath>
  </defs>
  <g id="마이키워드" transform="translate(0 0)">
    <g id="그룹_703" data-name="그룹 703" transform="translate(0 0)" clip-path="url(#clip-path)">
      <path id="패스_6752" data-name="패스 6752" d="M18.645,9.323A9.323,9.323,0,1,1,9.323,0a9.323,9.323,0,0,1,9.323,9.323" transform="translate(0 0)" fill="#bbd7e6"/>
      <path id="패스_6753" data-name="패스 6753" d="M8.988,2.629a.532.532,0,0,0-.512.39l-1.3,4.01H2.916a.545.545,0,0,0-.528.553.539.539,0,0,0,.228.44c.086.058,3.443,2.51,3.443,2.51S4.77,14.493,4.745,14.555a.591.591,0,0,0-.033.187.534.534,0,0,0,.839.44l3.437-2.5s3.36,2.448,3.437,2.5a.534.534,0,0,0,.839-.44.591.591,0,0,0-.033-.187c-.025-.063-1.315-4.023-1.315-4.023s3.358-2.452,3.443-2.51a.548.548,0,0,0-.3-.993H10.8L9.5,3.019a.53.53,0,0,0-.511-.39" transform="translate(0.335 0.369)" fill="#fff" fill-rule="evenodd"/>
      <path id="패스_6754" data-name="패스 6754" d="M12.748,15.439a.678.678,0,0,1-.386-.122L9.005,12.874,5.652,15.315a.687.687,0,0,1-.39.124.679.679,0,0,1-.676-.679.754.754,0,0,1,.04-.231c.032-.088.835-2.55,1.283-3.925-1.178-.86-3.286-2.4-3.355-2.447A.69.69,0,0,1,2.933,6.9H7.092L8.358,2.993A.667.667,0,0,1,9.005,2.5.677.677,0,0,1,9.654,3l1.27,3.9h4.159a.69.69,0,0,1,.375,1.252C15.388,8.2,13.28,9.744,12.1,10.6c.447,1.375,1.25,3.836,1.279,3.92a.7.7,0,0,1,.042.237.679.679,0,0,1-.675.679M9.005,12.521l.084.062s3.359,2.447,3.436,2.5a.389.389,0,0,0,.612-.324.465.465,0,0,0-.024-.141c-.024-.057-1.1-3.363-1.316-4.025l-.032-.1.083-.062c.137-.1,3.36-2.455,3.446-2.514a.405.405,0,0,0-.213-.732H10.717L9.382,3.081a.389.389,0,0,0-.751-.006L7.3,7.189H2.933a.4.4,0,0,0-.385.41.393.393,0,0,0,.168.323c.084.058,3.309,2.412,3.445,2.513l.083.062-.032.1c-.215.661-1.292,3.968-1.318,4.031a.433.433,0,0,0-.023.135.394.394,0,0,0,.391.394.4.4,0,0,0,.226-.072Z" transform="translate(0.317 0.351)" fill="#c3e0ed"/>
    </g>
  </g>
</svg>
