<svg xmlns="http://www.w3.org/2000/svg" xmlns:xlink="http://www.w3.org/1999/xlink" width="19" height="19" viewBox="0 0 19 19">
  <defs>
    <clipPath id="clip-path">
      <rect id="사각형_494" data-name="사각형 494" width="19" height="19" transform="translate(0 0)" fill="#737878"/>
    </clipPath>
  </defs>
  <g id="추가" transform="translate(0 0)">
    <g id="그룹_748" data-name="그룹 748" clip-path="url(#clip-path)">
      <path id="패스_6817" data-name="패스 6817" d="M9.5,19H1.738a1.106,1.106,0,0,1-.767-1.9l1.391-1.338A9.394,9.394,0,0,1,0,9.489,9.568,9.568,0,0,1,9.214,0,9.5,9.5,0,0,1,19,9.5a9.438,9.438,0,0,1-8.056,9.38A9.477,9.477,0,0,1,9.5,19M3.032,17.373H9.5a7.857,7.857,0,0,0,1.2-.1A7.865,7.865,0,0,0,14.984,3.852,7.794,7.794,0,0,0,9.262,1.631a7.93,7.93,0,0,0-7.635,7.86,7.8,7.8,0,0,0,2.446,5.7.813.813,0,0,1,0,1.176Z" transform="translate(0 0)" fill="#737878"/>
      <path id="패스_6818" data-name="패스 6818" d="M9.888,13.467a.814.814,0,0,1-.814-.814V6.863a.814.814,0,1,1,1.627,0v5.791a.814.814,0,0,1-.814.814" transform="translate(-0.387 -0.258)" fill="#737878"/>
      <path id="패스_6819" data-name="패스 6819" d="M12.654,10.7H6.863a.814.814,0,1,1,0-1.627h5.791a.814.814,0,1,1,0,1.627" transform="translate(-0.258 -0.387)" fill="#737878"/>
    </g>
  </g>
</svg>
