<svg xmlns="http://www.w3.org/2000/svg" xmlns:xlink="http://www.w3.org/1999/xlink" width="65.233" height="13.33" viewBox="0 0 65.233 13.33">
  <defs>
    <clipPath id="clip-path">
      <rect id="사각형_432" data-name="사각형 432" width="65.233" height="13.33" fill="#bdc7c7"/>
    </clipPath>
  </defs>
  <g id="그룹_676" data-name="그룹 676" transform="translate(0 0)" opacity="0.5">
    <g id="그룹_675" data-name="그룹 675" transform="translate(0 0)" clip-path="url(#clip-path)">
      <path id="패스_6717" data-name="패스 6717" d="M60.078,1.862a.91.91,0,0,0,.935-.924.935.935,0,1,0-1.87,0,.91.91,0,0,0,.935.924" transform="translate(-27.414 0)" fill="#bdc7c7"/>
      <path id="패스_6718" data-name="패스 6718" d="M3.787,4.684A3.663,3.663,0,0,0,0,8.546a3.707,3.707,0,0,0,3.787,3.874,3.937,3.937,0,0,0,2.057-.561,1.96,1.96,0,0,1-2.057,1.93.856.856,0,1,0,0,1.711,3.669,3.669,0,0,0,3.787-3.874V8.546A3.663,3.663,0,0,0,3.787,4.684m0,6.026A1.983,1.983,0,0,1,1.721,8.546,1.957,1.957,0,0,1,3.787,6.395,1.957,1.957,0,0,1,5.852,8.546,1.963,1.963,0,0,1,3.787,10.71" transform="translate(0 -2.171)" fill="#bdc7c7"/>
      <path id="패스_6719" data-name="패스 6719" d="M23.716,10.629A2,2,0,0,1,23,9.057V5.793a.864.864,0,0,0-1.6-.444,3.917,3.917,0,0,0-2.187-.644,3.663,3.663,0,0,0-3.787,3.862,3.707,3.707,0,0,0,3.787,3.874,3.8,3.8,0,0,0,2.792-1.157,2.618,2.618,0,0,0,.773.777.844.844,0,0,0,.971,0,.865.865,0,0,0,.236-1.159.836.836,0,0,0-.271-.273m-4.5.1a1.963,1.963,0,0,1-2.065-2.164,2.529,2.529,0,0,1,.167-.982,1.966,1.966,0,0,1,1.9-1.17A1.954,1.954,0,0,1,21.1,7.583a2.5,2.5,0,0,1,.181.985,2.144,2.144,0,0,1-.637,1.657,2.136,2.136,0,0,1-1.429.507" transform="translate(-7.151 -2.181)" fill="#bdc7c7"/>
      <path id="패스_6720" data-name="패스 6720" d="M35.409,6.417a2.3,2.3,0,0,1,.925.188.835.835,0,0,0,.358.081.848.848,0,0,0,.861-.855.814.814,0,0,0-.5-.774,3.709,3.709,0,0,0-1.642-.35,3.663,3.663,0,0,0-3.787,3.862,3.707,3.707,0,0,0,3.787,3.874,3.83,3.83,0,0,0,1.63-.338.864.864,0,0,0,.514-.786.848.848,0,0,0-.861-.855.832.832,0,0,0-.371.082,2.275,2.275,0,0,1-.913.187,1.963,1.963,0,0,1-2.065-2.164,1.957,1.957,0,0,1,2.065-2.151" transform="translate(-14.657 -2.181)" fill="#bdc7c7"/>
      <path id="패스_6721" data-name="패스 6721" d="M60.143,12.739h0a.862.862,0,0,1-.86-.86V6.2A.86.86,0,1,1,61,6.2v5.674a.862.862,0,0,1-.86.86" transform="translate(-27.479 -2.478)" fill="#bdc7c7"/>
      <path id="패스_6722" data-name="패스 6722" d="M87.68,1.862a.91.91,0,0,0,.935-.924.935.935,0,1,0-1.87,0,.91.91,0,0,0,.935.924" transform="translate(-40.208 0)" fill="#bdc7c7"/>
      <path id="패스_6723" data-name="패스 6723" d="M87.745,12.739h0a.862.862,0,0,1-.86-.86V6.2a.86.86,0,1,1,1.72,0v5.674a.862.862,0,0,1-.86.86" transform="translate(-40.272 -2.478)" fill="#bdc7c7"/>
      <path id="패스_6724" data-name="패스 6724" d="M51.129,6.1a3.561,3.561,0,0,0-1.52-2.635,3.824,3.824,0,0,0-2.139-.643,3.529,3.529,0,0,0-1.947.558V1a.839.839,0,1,0-1.679,0V9.472a.839.839,0,1,0,1.679,0V6.685a1.888,1.888,0,0,1,1.947-2.152,1.929,1.929,0,0,1,2.013,2.119V9.466a.84.84,0,1,0,1.68,0V6.64a5.092,5.092,0,0,0-.033-.539" transform="translate(-20.322 -0.066)" fill="#bdc7c7"/>
      <path id="패스_6725" data-name="패스 6725" d="M78.435,5.259a3.248,3.248,0,0,0,.435-1.652,3.231,3.231,0,0,0-3.5-3.253H73.306a.811.811,0,0,0-.835.8V9.524a.811.811,0,0,0,.835.8h3a2.9,2.9,0,0,0,2.133-5.069m-1.52-.691A3.847,3.847,0,0,0,76.3,4.52H74.141V1.96h1.233A1.629,1.629,0,0,1,77.2,3.607a1.651,1.651,0,0,1-.285.961M74.141,6.126h2.038c1.052,0,1.524.388,1.579,1.291a1.268,1.268,0,0,1-1.455,1.3H74.141Z" transform="translate(-33.591 -0.164)" fill="#bdc7c7"/>
      <path id="패스_6726" data-name="패스 6726" d="M109.627.311h-1.412a.811.811,0,0,0-.835.8V9.481a.811.811,0,0,0,.835.8h1.412c3.7,0,5.378-2.582,5.378-4.981S113.323.311,109.627.311m0,8.367h-.577V1.917h.577A3.362,3.362,0,0,1,113.336,5.3a3.357,3.357,0,0,1-3.709,3.374" transform="translate(-49.773 -0.144)" fill="#bdc7c7"/>
      <path id="패스_6727" data-name="패스 6727" d="M98.146,5.053a2.968,2.968,0,0,0,.589-1.779A2.874,2.874,0,0,0,95.916.354h-2.5a.827.827,0,0,0-.822.831V9.5a.822.822,0,1,0,1.644,0V7.1a1.321,1.321,0,0,1,1.069-1.185,1.99,1.99,0,0,1,.531-.072,1.9,1.9,0,0,1,.9.219,1.212,1.212,0,0,1,.7,1.038V9.5a.822.822,0,1,0,1.644,0V7.1a2.769,2.769,0,0,0-.938-2.05M95.84,4.183a3.506,3.506,0,0,0-1.6.383V2.016h1.676a1.22,1.22,0,0,1,1.174,1.258,1.285,1.285,0,0,1-.465,1,3.56,3.56,0,0,0-.785-.09" transform="translate(-42.92 -0.164)" fill="#bdc7c7"/>
    </g>
  </g>
</svg>
