<svg xmlns="http://www.w3.org/2000/svg" xmlns:xlink="http://www.w3.org/1999/xlink" width="17.213" height="20" viewBox="0 0 17.213 20">
  <defs>
    <clipPath id="clip-path">
      <rect id="사각형_495" data-name="사각형 495" width="17.213" height="20" fill="none"/>
    </clipPath>
  </defs>
  <g id="알림" transform="translate(0 0)">
    <g id="그룹_750" data-name="그룹 750" transform="translate(0 0)" clip-path="url(#clip-path)">
      <path id="패스_6820" data-name="패스 6820" d="M11,19.719H7.036a.794.794,0,0,0,0,1.587H11a.794.794,0,0,0,0-1.587" transform="translate(-0.414 -1.306)" fill="#737878"/>
      <path id="패스_6821" data-name="패스 6821" d="M16.87,12.133,15.8,9.851v-1.4A7.189,7.189,0,0,0,11.973,2.1,7.082,7.082,0,0,0,9.4,1.321V.794a.794.794,0,0,0-1.587,0v.528A7.083,7.083,0,0,0,5.241,2.1,7.189,7.189,0,0,0,1.418,8.447v1.4L.344,12.133a3.631,3.631,0,0,0,3.29,5.185H13.58a3.63,3.63,0,0,0,3.291-5.185m-2.28,3.335a2.013,2.013,0,0,1-1.01.262H3.633a2.009,2.009,0,0,1-1.009-.262,2.064,2.064,0,0,1-.844-2.659l1.15-2.443a.8.8,0,0,0,.076-.338V8.447A5.6,5.6,0,0,1,5.989,3.5a5.493,5.493,0,0,1,2.617-.658,5.624,5.624,0,0,1,5.6,5.6v1.582a.8.8,0,0,0,.076.338l1.15,2.443a2.064,2.064,0,0,1-.844,2.659" transform="translate(0 0)" fill="#737878"/>
    </g>
  </g>
</svg>
